Batten down the laughter hatches for a barn-storming night of jokes, banter and hilarious micky-taking from Britain's most outrageous comedian, bar none!

You'll explode with laughter as Chubby rips into his live audience with a non-stop battering ram of laugh-out-loud comedy. From motorway pile-ups to marriage counsellors, cancer-causing sausages to asylum seekers' swimming skills, and from disabled parking to why Chubby really is too fat to be gay - this show is grab-your-guts funny!

Format : MPEG-4
Format profile : Base Media / Version 2
Codec ID : mp42
File size : 800 MiB
Duration : 1h 3mn
Overall bit rate : 1 757 Kbps
Encoded date : UTC 2009-11-14 14:14:13
Tagged date : UTC 2009-11-14 15:46:34
Writing application : HandBrake 0.9.3 2008112300

Video
ID : 1
Format : AVC
Format/Info : Advanced Video Codec
Format profile : Main@L4.0
Format settings, CABAC : Yes
Format settings, ReFrames : 3 frames
Codec ID : avc1
Codec ID/Info : Advanced Video Coding
Duration : 1h 3mn
Bit rate mode : Variable
Bit rate : 1 593 Kbps
Width : 560 pixels
Height : 320 pixels
Display aspect ratio : 16:9
Frame rate mode : Variable
Frame rate : 25.000 fps
Minimum frame rate : 12.500 fps
Maximum frame rate : 25.000 fps
Resolution : 24 bits
Colorimetry : 4:2:0
Scan type : Progressive
Bits/(Pixel*Frame) : 0.356
Stream size : 725 MiB (91%)
Writing library : x264 core 65


Audio
ID : 2
Format : AAC
Format/Info : Advanced Audio Codec
Format version : Version 4
Format profile : LC
Format settings, SBR : No
Codec ID : 40
Duration : 1h 3mn
Bit rate mode : Variable
Bit rate : 160 Kbps
Maximum bit rate : 222 Kbps
Channel(s) : 2 channels
Channel positions : L R
Sampling rate : 48.0 KHz
Resolution : 16 bits
Stream size : 72.8 MiB (9%)
Encoded date : UTC 2009-11-14 14:14:14
Tagged date : UTC 2009-11-14 15:46:26 